<?xml version="1.0" encoding="utf-8"?>
<!DOCTYPE svg PUBLIC "-//W3C//DTD SVG 1.0//EN" "http://www.w3.org/TR/2001/REC-SVG-20010904/DTD/svg10.dtd">
<svg version="1.0" xmlns="http://www.w3.org/2000/svg" width="1080px" height="1080px" viewBox="0 0 1080 1080" preserveAspectRatio="xMidYMid meet">
 <g fill="#000000">
  <path d="M657.1 694.1 c0 -74.1 -0.3 -137 -0.6 -139.6 l-0.7 -4.9 -6.4 4.3 c-8.4 5.7 -20.7 18.4 -27.1 28.3 -15.4 23.2 -28.8 59.7 -35.8 97 -3.1 16.7 -3.1 16.7 -10.2 15.3 l-3.8 -0.6 0.7 -7 c1.7 -16.2 9.5 -48.1 17.4 -70.5 4.4 -12.6 14.3 -33 20.7 -42.5 9.8 -15.1 25.5 -29.5 39.2 -36.4 8.8 -4.5 29.3 -9.1 41.2 -9.2 l3.4 0 0 150.3 0 150.3 -19 0 -19 0 0 -134.9z"/>
  <path d="M140.6 696 c-5.9 -1.4 -13.2 -7.9 -16 -14.7 -8.4 -19.5 -0.3 -60.2 23.6 -119.2 21.5 -52.9 51.5 -113.5 79 -159.3 5.4 -8.9 5.5 -9 9.6 -9 l4.2 0 4.9 11.6 c2.7 6.4 13.8 32.5 24.7 58 10.9 25.5 24.9 58.5 31.1 73.3 6.2 14.8 18.8 44.5 27.9 65.9 9.1 21.5 20.8 49 25.9 61.2 7 16.6 9.4 23.4 9.4 26.8 l0 4.6 -5.5 -0.7 c-3.1 -0.3 -12.3 -0.6 -20.6 -0.6 l-14.9 0 -3.2 -7.6 c-5.9 -14.3 -19 -45.7 -27.4 -65.7 -4.6 -11 -9.9 -23.7 -11.8 -28.2 -3.9 -9.4 -3.4 -9.3 -16.7 -6.6 -28.3 5.7 -47.9 18.1 -62.4 39.6 -5.5 8 -13.6 24.5 -19.5 39.6 -6.2 15.9 -8.8 20.4 -14.8 25.6 -6.9 6 -16.3 7.8 -27.6 5.4z m16.1 -13.7 c5.4 -3.3 9.1 -9.4 15.7 -26.3 15.9 -40.3 30.6 -59.2 55.9 -71.9 7.8 -4 25.1 -9.2 35.4 -10.7 l9.2 -1.3 -27 -63.1 c-25.5 -59.5 -27.1 -63 -28.7 -60.9 -3 3.9 -27.1 51.8 -37.4 74.4 -29.4 63.7 -46.1 113.3 -46.3 137.1 -0.1 8.5 0.2 10 2.8 14.9 5.1 9.1 13.2 12.1 20.4 7.7z"/>
  <path d="M504.5 693.8 c-0.9 -1.7 -9.3 -20.4 -36.7 -83.3 l-21.1 -48.3 -0.3 65.9 -0.2 65.9 -5.6 0 -5.7 0 0.1 -82.3 0.1 -82.3 21.1 0 21.1 0 19.7 45.7 c44.1 101.7 48.3 111.8 48.3 115.2 0 3.4 0 3.4 -6.4 4.1 -11.7 1.2 -33.4 0.7 -34.4 -0.6z"/>
  <path d="M826.8 629.1 c-63.1 -8.6 -114.8 -60.4 -124.2 -124.7 -0.6 -4.1 -1.2 -16.1 -1.2 -26.6 l0 -19.1 18.8 0 18.9 0 0.6 15.6 c1.3 30.9 10.9 58.1 30.7 87.2 12.7 18.8 36.7 39.8 54.5 47.9 23.8 10.8 42 11.8 66.2 3.7 14.7 -4.9 25 -10.9 35.1 -20.4 16.6 -15.5 27.5 -35.9 32.4 -59.7 l1.9 -9.5 4 -0.3 4 -0.3 -0.7 27.1 -0.7 27.1 -4.9 6.2 c-13.5 17.1 -43.6 35.3 -70 42.4 -18.5 4.9 -44 6.2 -65.4 3.3z"/>
  <path d="M355.4 442.8 c-5.1 -3.4 -7.4 -8.4 -7.4 -15.9 0 -12.7 4.9 -17.6 17.6 -17.6 9.8 0 13 1.4 13 5.7 0 6.8 -5.7 10.1 -11.6 7 -1.6 -0.8 -2.4 -0.5 -4.1 1.7 -2.7 3.5 -2.7 4.1 -0.2 6.6 1.6 1.6 3.1 1.8 7.4 1.4 6.4 -0.6 8.5 0.7 8.5 5.6 0 5.3 -3.1 7.3 -11.9 7.7 -6.5 0.3 -8.1 0.1 -11.3 -2.1z"/>
  <path d="M407.2 443.2 c-6.3 -3.2 -8 -6.5 -8 -16.3 0 -13.8 3.9 -17.6 18 -17.6 7.9 0 8.1 0 12.1 4.1 l4.1 4.1 0 8.8 c0 10.4 -2.1 15 -7.9 17.4 -5 2 -13.9 1.9 -18.4 -0.4z m12.8 -13.4 c1.6 -3.4 -0.3 -7.9 -3.3 -7.9 -2.5 0 -5.5 3.9 -4.6 6.2 1.8 5 6 5.9 7.9 1.7z"/>
  <path d="M516.9 443.2 c-5.2 -2.7 -7.5 -7.7 -7.5 -16 0 -11.9 4.5 -17.6 15.1 -18.7 4.3 -0.4 7.3 -0.1 10.8 1.2 4.2 1.7 4.7 2.2 4.7 5.2 -0.1 6.4 -6 10 -11.6 7.1 -1.6 -0.8 -2.4 -0.5 -4.1 1.7 -2.7 3.5 -2.7 3.8 -0.2 6.9 1.8 2.2 2.3 2.3 4.2 1.3 3.2 -2 7.9 -1.7 9.9 0.5 1.1 1.1 1.8 3.7 1.8 5.7 0 3.3 -0.5 4 -3.6 5.5 -5 2.3 -15 2.2 -19.5 -0.2z"/>
  <path d="M714.1 443.2 c-5.3 -2.8 -7.5 -7.7 -7.5 -16.6 0 -8.4 2.1 -13.1 7.3 -15.8 3.7 -1.8 18 -2.2 21.3 -0.5 2.3 1.3 2.8 7.2 0.7 9.3 -0.9 0.9 -0.8 1.6 0.6 2.6 1.6 1.2 1.7 2.4 1.1 11.1 l-0.7 9.7 -3.8 1.1 c-6.1 1.7 -15 1.3 -19 -0.8z"/>
  <path d="M454.6 440.3 c0 -2 2.4 -9.8 5.4 -17.4 l5.3 -13.7 6.5 0 6.5 0 5.6 14.6 c3 7.9 5.5 15.8 5.5 17.4 0 2.8 -0.1 2.8 -6.9 2.8 -6.2 0 -6.9 -0.2 -6.9 -2.1 0 -3.2 -5.3 -5 -7.1 -2.5 -0.7 1.1 -1.4 2.5 -1.4 3.3 0 0.9 -1.8 1.4 -6.3 1.4 l-6.3 0 0 -3.7z"/>
  <path d="M561.1 426.6 l0 -17.4 6.3 0 6.3 0 0 5.8 c0 5.5 0.1 5.8 2.6 5.8 2.5 0 2.6 -0.3 2.6 -5.8 l0 -5.8 6.3 0 6.3 0 0 17.4 0 17.4 -6.3 0 -6.3 0 0 -5.8 c0 -5.5 -0.1 -5.8 -2.6 -5.8 -2.5 0 -2.6 0.3 -2.6 5.8 l0 5.8 -6.3 0 -6.3 0 0 -17.4z"/>
  <path d="M615.9 426.6 l0 -17.4 6.3 0 6.3 0 0 17.4 0 17.4 -6.3 0 -6.3 0 0 -17.4z"/>
  <path d="M652.9 426.6 l0 -17.4 6.2 0 c6.1 0 6.3 0.1 8.8 4 l2.4 3.9 0.3 -3.9 0.3 -4 5.8 0 5.7 0 0 9.3 c0 5.2 0.3 13 0.6 17.4 l0.7 8.1 -6.8 0 -6.8 0 -2.6 -4.5 -2.6 -4.4 -0.3 4.5 -0.3 4.4 -5.8 0 -5.7 0 0 -17.4z"/>
  <path d="M229.9 379.2 c0 -2 2.4 -9.8 5.4 -17.4 l5.3 -13.7 6.6 0 6.5 0 5 13.1 c3 7.8 5 14.8 5 17.4 l0 4.3 -5.9 0 c-5.5 0 -5.9 -0.2 -6.9 -3.2 -0.9 -2.5 -1.8 -3.2 -4.1 -3.2 -2.4 0 -3.2 0.5 -3.7 3.2 -0.6 3.1 -0.8 3.2 -7 3.2 l-6.2 0 0 -3.7z"/>
  <path d="M286.6 382.2 c-0.4 -0.4 -0.7 -8.3 -0.7 -17.5 l0 -16.7 6.6 0 c6.3 0 6.8 0.1 8.6 3.5 l2.1 3.4 0.3 -3.5 0.3 -3.4 6.3 0 6.2 0 -0.2 17.2 -0.3 17.1 -6 0.3 -5.9 0.3 -2.5 -4.4 -2.4 -4.4 -0.5 4.1 c-0.5 4.1 -0.5 4.1 -5.8 4.4 -3 0.2 -5.7 0 -6.1 -0.4z"/>
  <path d="M340.7 365.6 l0 -17.5 11 0 c9.6 0 11.3 0.3 14.4 2.4 4.6 3.1 6.5 8.8 5.9 16.9 -1.1 11.7 -5.1 14.8 -20.5 15.3 l-10.9 0.4 0 -17.5z m16 2.8 c2.3 -2.1 2.4 -4.3 0.1 -6.9 -2.7 -3.1 -3.5 -2.3 -3.5 3.4 0 5.7 0.4 6.2 3.4 3.5z"/>
  <path d="M395.2 382.1 c-0.4 -0.3 -0.7 -8.2 -0.7 -17.4 l0 -16.7 11 0 c9.4 0 11.3 0.3 13.7 2.2 2.4 1.9 2.7 2.8 2.7 9 0 3.8 -0.4 7.7 -1.1 8.8 -0.6 1.4 -0.5 2.5 0.5 3.9 0.8 1.2 1.6 4 1.6 6.5 l0 4.4 -6.1 0 c-5.5 0 -6.2 -0.3 -7.8 -2.8 l-1.8 -3 -0.1 3 c0 2.7 -0.2 2.8 -5.6 2.8 -3.2 0 -6 -0.3 -6.3 -0.7z"/>
  <path d="M446.1 365.4 l0 -17.4 12.2 0 12.2 0 -0.7 11.6 c-0.5 8.2 -0.4 11.6 0.4 11.6 0.7 0 1.2 2.2 1.2 5.8 l0 5.8 -12.7 0 -12.7 0 0 -17.4z"/>
  <path d="M491.5 379.6 c0 -1.9 2.4 -9.7 5.5 -17.5 l5.5 -14 6.4 0 6.5 0 5.4 13.7 c3.1 7.6 5.5 15.4 5.5 17.4 l0 3.7 -6.2 0 c-6 0 -6.2 -0.1 -7.4 -3.3 -0.9 -2.6 -1.6 -3.2 -4 -2.8 -2.1 0.2 -3.1 1.1 -3.5 3 -0.5 2.4 -1.2 2.6 -7.2 3 l-6.5 0.3 0 -3.4z"/>
  <path d="M586.4 365.4 l0 -17.4 6.9 0 7 0 1.9 4.2 1.9 4.2 1.9 -4.2 1.9 -4.2 6.8 0 6.6 0 0 17.4 0 17.4 -5.9 0 c-5 0 -6 -0.3 -6.4 -2 -0.4 -1.6 -1.7 -2.1 -5.7 -2.4 -4.7 -0.3 -5.2 -0.1 -5.2 2.1 0 2.1 -0.5 2.3 -5.8 2.3 l-5.8 0 0 -17.4z"/>
  <path d="M643.4 378.9 c0 -2.3 2.2 -9.8 5.2 -17.2 l5.1 -13.2 6.8 -0.3 6.8 -0.2 5.1 13 c3.1 8 5 14.7 5 17.4 l0 4.4 -5.9 0 c-5.5 0 -5.9 -0.2 -6.9 -3.2 -0.9 -2.5 -1.8 -3.2 -4.1 -3.2 -2.4 0 -3.2 0.5 -3.7 3.2 -0.6 3.1 -0.8 3.2 -7 3.2 l-6.2 0 0 -3.9z"/>
  <path d="M699.3 365.4 l0 -17.4 11.1 0 c10.4 0 11.3 0.2 13.7 2.6 2.2 2.1 2.6 3.6 2.6 9 0 3.5 -0.5 7.3 -1.3 8.3 -0.9 1.5 -0.8 2.4 0.5 4.4 1.1 1.4 1.8 4.2 1.8 6.4 l0 4 -6.3 0 c-5.9 0 -6.4 -0.2 -7.7 -2.7 l-1.3 -2.8 -0.5 2.5 c-0.5 2.2 -1.3 2.5 -6.6 2.8 l-6 0.3 0 -17.5z"/>
  <path d="M750.5 377.4 c-0.3 -3.1 -0.6 -11 -0.6 -17.4 l0 -11.9 6.3 0 6.3 0 0 17.4 0 17.4 -5.7 0 -5.6 0 -0.7 -5.5z"/>
  <path d="M784.7 378.4 c0.1 -2.8 2 -9.3 5.2 -17.2 l5.2 -12.7 6.6 0 6.6 0 5.1 13.2 c2.7 7.3 5.1 15 5.1 17.2 l0 3.9 -5.9 0 c-5.6 0 -5.9 -0.2 -7.1 -3.2 -0.9 -2.4 -1.9 -3.2 -3.9 -3.2 -2 0 -3 0.7 -3.9 3.2 -1.2 3 -1.5 3.2 -7.1 3.2 l-5.9 0 0 -4.4z"/>
 </g>
 <g fill="transparent">
  <path d="M0 540 l0 -540 540 0 540 0 0 540 0 540 -540 0 -540 0 0 -540z m691.9 138.7 l0 -147.2 -3.4 0.5 c-1.9 0.3 -5.8 0.8 -8.6 1.2 -8.1 1.1 -20.5 4.6 -26.4 7.6 -13.6 6.9 -29.3 21.4 -39.1 36.4 -16.3 24.8 -30.4 65.4 -37.9 110.1 -0.4 2.7 -0.1 3.5 1.6 3.9 2.5 0.6 2.3 1.3 5.2 -14.6 2.8 -16 7.1 -32.1 13.1 -49.7 13.7 -40.1 32 -66 55.9 -80.1 6.6 -3.8 7.2 -3.7 7.4 1.1 0.1 2.3 0.3 65.8 0.4 141.1 l0.2 136.8 15.8 0 15.8 0 0 -147.1z m-536.9 14.1 c6.1 -1.3 13.5 -7.2 17.4 -13.9 1.5 -2.4 4.9 -10.1 7.5 -17.1 5.9 -15.1 14 -31.5 19.5 -39.6 16.8 -24.7 40.7 -37.7 76.5 -41.6 l5.3 -0.6 11.3 27.2 c6.2 14.9 15.4 36.8 20.4 48.7 5 11.9 10.2 24.6 11.7 28.2 l2.7 6.5 17.3 0.3 c10.5 0.2 17.3 -0.1 17.3 -0.7 0 -0.9 -3.5 -9.2 -35.3 -84.4 -9.2 -21.4 -21.7 -51.2 -27.9 -65.9 -6.2 -14.8 -20.3 -47.8 -31.1 -73.3 -10.9 -25.5 -21.9 -51.6 -24.7 -58 -2.6 -6.3 -5.3 -11.6 -5.9 -11.6 -2.6 0 -32 52.7 -51.8 93.3 -40.6 83 -63.2 149.1 -60 176.6 1.7 15.4 10 24.8 23.9 26.9 0.4 0.1 3.1 -0.4 6 -1.1z m386.8 -2.2 c0.4 -0.5 -7.3 -18.6 -47.9 -112.3 l-19.7 -45.7 -17.9 0 -17.9 0 -0.1 79.1 -0.1 79.1 2.5 0 2.4 0 0 -73 c0.1 -62.1 0.3 -72.7 1.5 -70.5 1.3 2.2 20.5 46 55.8 127.1 3.5 8.1 6.9 15.4 7.5 16.2 0.9 1.2 4.3 1.4 17.3 0.9 8.9 -0.3 16.3 -0.8 16.7 -1.1z m327.9 -64.2 c18.8 -2.1 38.7 -9.1 56.8 -19.5 11.4 -6.5 26.5 -18.9 32.5 -26.5 l4.9 -6.2 0.8 -24 c0.5 -18 0.4 -23.9 -0.5 -23.4 -0.6 0.4 -1.2 1.9 -1.2 3.2 0 5.7 -5.6 23.7 -10.5 34.1 -6.8 14.1 -12.6 22.3 -23 32.1 -10.1 9.5 -20.5 15.5 -35.1 20.4 -39.2 13.2 -75.5 3.1 -109.1 -30.5 -12.4 -12.3 -21.2 -24.4 -29.8 -40.6 -12.1 -22.8 -17.8 -43.1 -18.9 -67.7 l-0.6 -15.6 -15.7 0 -15.6 0 0 15.9 c0 8.6 0.5 19.3 1.2 23.4 8.4 57.3 50.8 105.6 106.1 121.1 16.6 4.6 39.3 6.2 57.8 4z m-496.1 -187.2 c1.8 -1.6 1.9 -2 0.5 -3.4 -1.3 -1.4 -2.1 -1.4 -4.7 -0.2 -2.6 1.1 -3.9 1.1 -6.4 0 -3.9 -1.6 -5.3 -3.9 -5.3 -8.8 0 -7.2 6.5 -11.4 12.7 -8.1 1.6 0.8 2.3 0.5 3.6 -1.3 1.6 -2.2 1.5 -2.4 -0.7 -3.7 -1.3 -0.7 -4.4 -1.3 -7.1 -1.4 -15.3 -0.1 -20.3 19.3 -7.1 27.5 4.1 2.5 11.3 2.2 14.6 -0.7z m48.9 1.3 c5.1 -2.2 7.9 -7.2 7.9 -14.2 0 -5.2 -0.3 -6 -4.1 -9.7 -3.6 -3.6 -4.6 -4.1 -9 -4.1 -9.6 0 -14.8 5.1 -14.8 14.4 0 6.4 2.3 10.4 7.9 13.2 4.3 2.3 7.3 2.3 12 0.4z m110.8 -0.2 c4.1 -2 4.3 -2.6 1.8 -5 -1.7 -1.4 -2.1 -1.5 -3.9 -0.1 -5.3 3.8 -12.2 -0.6 -12.2 -7.8 0 -7.6 6.3 -12 12.4 -8.8 1.4 0.7 2.2 0.3 3.6 -1.5 1.9 -2.4 1.9 -2.5 -2.7 -4.2 -12.9 -5 -24.4 9.1 -17.7 21.5 3.6 6.6 11.6 9.2 18.8 5.8z m196.8 0.6 c3.8 -1.1 3.8 -1.2 4.2 -7.7 0.2 -3.6 0.2 -6.9 0 -7.3 -0.5 -1.2 -10.8 -1.1 -10.8 0.1 0 2.4 1.5 4.3 3.4 4.3 1.6 0 2 0.6 1.7 3 -0.2 2.3 -0.8 3 -3.7 3.2 -5.1 0.5 -8.8 -3.5 -8.8 -9.6 0 -6.8 3.4 -9.7 10.3 -8.9 4.2 0.5 5.3 0.2 6.3 -1.4 1.1 -1.7 0.9 -2.2 -0.7 -3.2 -3.1 -1.6 -11.4 -1.3 -15 0.5 -9.6 5.1 -9.6 20.8 0.2 26.1 4 2.1 7.2 2.3 12.8 0.8z m-265.3 -3.2 c1.1 -2.7 1.8 -3.2 4.9 -3.2 5.5 0 9.2 1.7 9.2 4.2 0 1.7 0.7 2.1 3.6 2.1 l3.6 0 -4.2 -10.8 c-2.3 -6 -4.7 -12.4 -5.4 -14.2 -0.9 -3 -1.6 -3.5 -4.5 -3.5 -3.5 0 -3.5 0 -8.8 13.7 -3 7.6 -5.4 13.9 -5.4 14.2 0 0.3 1.4 0.5 3 0.5 2.3 0 3.2 -0.7 4.1 -3.2z m105.8 -2.6 l0 -5.8 5.8 0 5.8 0 0 5.8 c0 5.7 0 5.8 3.2 5.8 l3.2 0 0 -14.2 0 -14.2 -3.3 0 c-2 0 -3 0.4 -2.5 1.2 0.4 0.6 0.4 3.2 0 5.8 l-0.6 4.6 -5.8 0 -5.7 0 0 -5.8 c0 -5.7 0 -5.8 -3.2 -5.8 l-3.2 0 0 14.2 0 14.2 3.2 0 c3.2 0 3.2 -0.1 3.2 -5.8z m54.8 -8.4 l0 -14.2 -3.2 0 -3.2 0 0 14.2 0 14.2 3.2 0 3.2 0 0 -14.2z m36.1 5.1 l0.3 -9.3 5.8 9.2 c5.4 8.5 6 9.2 9.4 9.3 3.4 0 3.5 -0.1 2.8 -3.3 -0.3 -1.8 -0.6 -8.2 -0.6 -14.2 0 -11 0 -11 -2.6 -11 -2.4 0 -2.5 0.2 -2.8 8.6 l-0.3 8.6 -5.7 -8.6 c-4.9 -7.5 -6 -8.6 -8.6 -8.6 l-3.1 0 0 14.2 0 14.2 2.6 0 c2.5 0 2.5 -0.2 2.8 -9.2z m-421.6 -55.2 c0.6 -3.1 0.8 -3.2 6.9 -3.2 5.9 0 6.1 0.1 7.3 3.2 0.7 2.4 1.7 3.2 3.7 3.2 1.6 0 2.7 -0.5 2.7 -1.2 0 -0.6 -2.2 -7.1 -5 -14.2 -4.9 -13.1 -5 -13.1 -8.3 -13.1 -3.4 0 -3.5 0 -8.8 13.7 -3 7.6 -5.4 13.9 -5.4 14.2 0 0.3 1.4 0.5 3.1 0.5 2.6 0 3.3 -0.5 3.8 -3.2z m55.4 -6.2 l0.5 -9 5.7 9.3 c5.1 8 6.1 9.2 8.4 8.9 l2.7 -0.3 0.3 -13.9 0.3 -14 -3.3 0 -3.2 0 0 8.8 0 8.6 -5.6 -8.6 c-5.1 -8 -5.8 -8.8 -8.9 -8.8 l-3.5 0 0 13.5 c0 7.5 0.3 13.9 0.7 14.3 0.4 0.4 1.7 0.6 3 0.4 1.9 -0.3 2.2 -1.3 2.6 -9.2z m63.5 8.3 c10.9 -3.1 13.5 -18.8 4.1 -25 -3 -2 -5 -2.4 -11.3 -2.4 l-7.8 0 0 14.2 0 14.2 5.6 0 c3 0 7.3 -0.5 9.4 -1.1z m45.1 -4.2 c0 -4.5 0.3 -5.3 2 -5.3 1.4 0 3.1 1.8 5 5.3 2.4 4.4 3.4 5.3 5.9 5.3 3.7 0 3.7 -0.9 0.3 -6.4 l-2.7 -4.2 2.2 -2.7 c3.2 -4 2.8 -10.1 -0.6 -12.9 -2.3 -1.8 -4.3 -2.2 -10.5 -2.2 l-7.8 0 0 13.5 c0 7.5 0.3 13.9 0.7 14.2 0.3 0.4 1.8 0.7 3.2 0.7 2.2 0 2.4 -0.4 2.4 -5.3z m64.3 2.6 c0 -2.5 -0.3 -2.6 -6.3 -2.6 l-6.3 0 0 -3.7 0 -3.6 5.3 0.6 c5.2 0.6 5.3 0.5 5.3 -2.2 0 -2.6 -0.3 -2.7 -5.3 -2.7 -5.2 0 -5.3 -0.1 -5.3 -3.2 0 -3.2 0.1 -3.2 5.8 -3.2 5.5 0 5.8 -0.1 5.8 -2.6 0 -2.6 -0.1 -2.6 -9 -2.6 l-9 0 0 14.2 0 14.2 9.5 0 c9.4 0 9.5 0 9.5 -2.6z m33.8 -0.5 c0.5 -2.4 1.2 -2.6 6.6 -3 5.9 -0.3 6.1 -0.2 7.2 2.8 0.9 2.6 1.7 3.3 4.3 3.3 2.5 0 3.1 -0.3 2.5 -1.8 -0.4 -1.1 -3 -7.5 -5.6 -14.2 -4.9 -12.2 -5 -12.4 -8.2 -12.4 -3.3 0 -3.4 0.2 -8.5 13.4 -2.8 7.3 -5.4 13.8 -5.6 14.2 -0.2 0.5 1.3 0.8 3.2 0.6 2.7 -0.2 3.6 -0.8 4.1 -3z m93 -6 l0.3 -9.3 3.4 7.2 c1.9 4 4 7.1 4.9 7.1 0.9 0 3 -2.8 4.6 -6.5 l3 -6.5 0.5 8.4 c0.5 8.1 0.6 8.3 3.5 8.6 l2.8 0.3 0 -14.2 0 -14.3 -3.6 0 c-3.4 0 -3.7 0.3 -7.2 7.9 l-3.6 7.9 -3.2 -7.6 c-3 -7.5 -3.2 -7.7 -7.1 -8 l-3.9 -0.3 0 14.2 0 14.3 2.6 0 c2.5 0 2.5 -0.2 2.8 -9.2z m58.3 6 c0.6 -3.1 0.8 -3.2 6.9 -3.2 5.9 0 6.1 0.1 7.3 3.2 0.7 2.4 1.7 3.2 3.7 3.2 1.6 0 2.7 -0.5 2.7 -1.3 0 -0.6 -2.2 -7.1 -5 -14.2 l-5.1 -13 -3.6 0.2 c-3.5 0.3 -3.6 0.4 -8.6 13.5 -2.8 7.3 -5.2 13.5 -5.2 14 0 0.4 1.4 0.7 3.1 0.7 2.6 0 3.3 -0.5 3.8 -3.2z m55.2 -2.3 c0.4 -6.9 3 -6.8 6.9 0.2 2.5 4.4 3.5 5.3 6.1 5.3 1.7 0 3.1 -0.2 3.1 -0.5 0 -0.3 -1.3 -2.8 -2.8 -5.6 l-2.8 -5.2 2.3 -2.4 c3.2 -3.5 3.1 -8.9 -0.3 -12.1 -2.2 -2.3 -3.5 -2.6 -10.5 -2.6 l-7.9 0 0 14.3 0 14.2 3 -0.3 c2.6 -0.3 2.8 -0.7 3.2 -5.3z m50.8 -8.8 l0 -14.2 -3.2 0 -3.2 0 0 8.8 c0 4.7 0.3 11.2 0.6 14.2 0.6 4.9 0.9 5.5 3.2 5.5 l2.5 0 0 -14.2z m35.1 11.1 c1.2 -3 1.5 -3.2 7.1 -3.2 5.6 0 5.9 0.2 7.1 3.2 0.9 2.4 1.9 3.2 3.9 3.2 1.5 0 2.7 -0.3 2.7 -0.7 0 -0.5 -2.3 -6.8 -5.1 -14 l-5.1 -13.2 -3.5 0 c-3.5 0 -3.5 0.1 -8.6 12.7 -2.7 7 -5.1 13.3 -5.2 14 0 0.6 1.3 1.3 2.7 1.3 2 0 3 -0.7 3.9 -3.2z"/>
  <path d="M141.8 686.2 c-4.2 -2.2 -6 -4 -8.4 -8.3 -3 -5.2 -3.1 -6.1 -3 -18.1 0 -15.5 3 -29.2 12.1 -56.6 13.8 -41.2 44.8 -109.9 72.1 -159.3 3.6 -6.6 5.8 -8.9 5.8 -6 0 0.6 13.1 31.7 29.1 69.2 16 37.3 28.9 68.1 28.7 68.2 -0.1 0.1 -5 0.8 -10.5 1.5 -11 1.4 -27.5 6.1 -36.2 10.5 -25.3 12.7 -40 31.6 -55.9 71.9 -8.8 22.1 -13.3 27.7 -23.8 29.1 -3.7 0.4 -5.8 0 -10 -2.1z"/>
  <path d="M411.3 434.7 c-1.6 -1.3 -2.5 -3.5 -2.8 -6.8 -0.5 -4.2 -0.2 -5.3 2.1 -7.6 4.7 -4.7 11.3 -3.3 13.4 3.1 3.1 9.4 -5.5 17.1 -12.7 11.3z"/>
  <path d="M468.7 427.7 c0.3 -1.4 1.2 -3.9 1.8 -5.5 l1.2 -3 1.8 4.7 c1.1 2.6 1.7 5.1 1.5 5.6 -0.2 0.4 -1.9 0.7 -3.7 0.7 -2.8 0 -3.2 -0.3 -2.5 -2.6z"/>
  <path d="M243.6 367.1 c0 -0.5 0.7 -2.7 1.7 -5 l1.8 -4.1 1.9 4.2 c2.5 5.7 2.5 5.8 -1.7 5.8 -2 0 -3.7 -0.4 -3.7 -0.9z"/>
  <path d="M350.2 365.6 l0 -9.1 4.1 0 c11.3 0 11.2 15.8 -0.1 17.6 l-4 0.6 0 -9.2z"/>
  <path d="M403.9 360.3 c0 -3.7 0.1 -3.8 4.2 -3.8 7.4 0 7.1 6.5 -0.4 7.2 -3.7 0.3 -3.8 0.2 -3.8 -3.4z"/>
  <path d="M505.8 365.8 c0.3 -1.4 1.3 -3.6 2 -5 1.3 -2.4 1.3 -2.4 3 1.9 1.1 2.4 1.8 4.6 1.8 4.9 0 0.3 -1.7 0.5 -3.8 0.5 -3.4 0 -3.7 -0.2 -3 -2.3z"/>
  <path d="M657.1 367.5 c0 -1.7 2.5 -8.9 3.2 -8.9 0.7 0 3.2 6.3 3.2 8.2 0 0.7 -1.4 1.3 -3.2 1.3 -1.7 0 -3.2 -0.3 -3.2 -0.6z"/>
  <path d="M708.8 360.2 c0 -3.6 0.1 -3.7 4.1 -3.7 4.5 0 6.1 1.9 4.3 5.4 -0.8 1.4 -2.2 2 -4.7 2 -3.5 0 -3.7 -0.2 -3.7 -3.7z"/>
  <path d="M798.4 366.8 c0 -1.9 2.4 -8.2 3.2 -8.2 0.6 0 3.2 7.2 3.2 8.9 0 0.3 -1.4 0.6 -3.2 0.6 -1.7 0 -3.2 -0.5 -3.2 -1.3z"/>
 </g>
</svg>